<?xml version="1.0" standalone="no"?>
<!DOCTYPE svg PUBLIC "-//W3C//DTD SVG 20010904//EN"
 "http://www.w3.org/TR/2001/REC-SVG-20010904/DTD/svg10.dtd">
<svg version="1.0" xmlns="http://www.w3.org/2000/svg"
 width="833.000000pt" height="833.000000pt" viewBox="0 0 833.000000 833.000000"
 preserveAspectRatio="xMidYMid meet">
<metadata>
Created by potrace 1.11, written by Peter Selinger 2001-2013
</metadata>
<g transform="translate(0.000000,833.000000) scale(0.100000,-0.100000)"
fill="#000000" stroke="none">
<path d="M4080 8172 c-38 -56 -124 -176 -131 -182 -3 -3 -11 -14 -17 -26 -6
-11 -96 -81 -199 -154 -103 -74 -242 -172 -308 -219 -131 -94 -241 -171 -323
-228 l-52 -36 17 -29 c10 -15 52 -80 93 -144 90 -139 92 -142 155 -243 28 -44
57 -83 65 -85 8 -3 51 -7 95 -11 92 -7 170 -14 235 -20 25 -2 74 -7 110 -10
59 -5 94 -8 230 -20 25 -2 79 -7 120 -10 41 -3 89 -9 105 -12 l30 -6 -30 -7
c-16 -4 -109 -32 -205 -63 -96 -30 -366 -114 -600 -187 -234 -72 -476 -148
-537 -167 l-113 -36 33 -41 c36 -44 269 -343 302 -387 11 -15 62 -81 113 -147
l93 -120 495 0 495 0 471 159 c259 88 472 160 473 162 4 5 191 308 242 390 29
48 61 100 71 114 21 33 60 58 -355 -219 -287 -191 -347 -228 -370 -223 -16 2
-46 7 -68 10 -22 3 -51 8 -65 10 -43 8 -85 15 -121 19 -19 3 -79 12 -134 20
-55 8 -116 17 -135 20 -66 10 -115 17 -139 22 -24 5 -24 5 6 22 17 9 76 44
132 77 56 33 130 76 164 96 34 20 100 58 147 86 47 27 186 109 310 181 170
100 229 139 241 162 15 28 61 128 64 140 1 3 18 41 39 85 49 104 69 155 65
160 -3 2 -27 6 -54 9 -28 2 -75 7 -105 11 -127 14 -229 25 -285 30 -33 3 -71
8 -85 10 -14 2 -56 6 -95 10 -38 3 -83 8 -100 10 -16 2 -57 7 -90 10 -33 3
-80 8 -105 11 -25 2 -67 7 -95 9 -27 3 -66 8 -85 10 -19 2 -64 7 -100 11 -36
3 -76 7 -90 9 -14 1 -59 6 -100 10 -41 4 -91 10 -111 14 l-37 6 145 126 144
126 102 -24 c56 -12 134 -30 172 -38 39 -9 77 -18 87 -20 9 -2 57 30 115 79
84 70 452 375 461 382 2 1 6 22 8 45 3 24 9 48 14 54 5 6 71 10 174 10 91 -1
166 0 166 2 0 1 -32 19 -71 38 l-70 36 85 70 c47 39 86 72 86 75 0 2 -307 4
-682 4 l-683 0 -25 -38z"/>
<path d="M3645 5022 c-275 -137 -644 -320 -820 -407 -176 -87 -321 -159 -323
-161 -3 -2 22 -92 74 -266 5 -18 39 -7 469 147 72 25 213 76 315 111 102 36
214 76 250 89 138 51 436 157 451 160 8 2 32 10 53 19 21 9 39 16 40 16 5 0 4
-325 0 -341 -2 -9 -10 -16 -17 -17 -6 0 -43 -9 -82 -20 -159 -45 -261 -73
-275 -77 -8 -2 -49 -13 -90 -25 -41 -12 -97 -28 -125 -35 -27 -8 -84 -23 -125
-35 -41 -12 -82 -23 -90 -25 -51 -12 -762 -214 -766 -217 -4 -4 -84 -266 -84
-275 0 -4 118 6 150 12 8 2 49 6 90 10 115 11 120 12 190 19 36 4 81 9 100 11
19 3 62 7 95 10 33 3 76 8 95 10 19 3 60 7 90 10 30 3 71 8 90 10 19 2 64 7
100 10 74 7 129 13 180 20 41 5 120 13 205 20 33 3 71 7 85 10 49 8 160 18
176 16 7 -1 11 -226 11 -761 0 -418 -2 -760 -4 -760 -2 0 -66 46 -141 101 -75
56 -175 129 -221 163 -46 34 -164 121 -262 194 -98 72 -180 132 -182 132 -2 0
-4 -42 -4 -92 0 -121 -15 -342 -28 -408 -3 -14 -8 -45 -11 -70 -3 -25 -7 -52
-9 -60 -3 -8 -7 -33 -11 -55 -3 -22 -15 -78 -26 -125 -11 -47 -22 -96 -25
-110 -15 -84 -121 -418 -177 -559 -31 -77 -31 -82 -8 -107 17 -19 111 -129
147 -173 11 -13 25 -29 30 -35 6 -6 28 -33 50 -61 22 -27 45 -54 51 -60 6 -5
30 -35 55 -65 24 -30 56 -68 70 -85 15 -16 104 -122 199 -235 95 -113 189
-225 210 -250 21 -25 95 -112 164 -195 70 -82 130 -151 134 -153 4 -1 48 46
97 105 49 60 92 110 95 113 3 3 28 32 55 65 28 33 52 62 55 65 3 3 64 75 135
160 72 85 137 164 147 175 559 664 551 654 545 674 -3 9 -29 79 -57 156 -43
117 -126 383 -145 467 -10 48 -26 124 -31 148 -3 14 -7 32 -9 40 -2 8 -7 31
-10 50 -3 19 -10 60 -15 90 -6 30 -13 75 -16 100 -3 25 -7 56 -9 69 -8 49 -19
239 -18 336 0 167 16 267 60 375 109 266 364 431 718 465 32 3 61 7 62 9 2 2
-10 46 -26 99 -17 53 -35 115 -41 137 -10 37 -14 41 -67 56 -30 9 -61 17 -67
18 -65 14 -67 16 -61 60 3 22 8 48 10 56 2 8 6 38 10 65 3 28 10 53 14 58 4 4
38 -4 77 -17 38 -13 70 -23 71 -22 3 2 62 198 69 226 2 8 6 24 9 35 5 18 -27
36 -262 152 -148 72 -518 256 -823 407 -305 152 -562 276 -570 276 -9 0 -241
-112 -515 -248z"/>
</g>
</svg>
